<?xml version="1.0" standalone="no"?>
<!DOCTYPE svg PUBLIC "-//W3C//DTD SVG 20010904//EN"
 "http://www.w3.org/TR/2001/REC-SVG-20010904/DTD/svg10.dtd">
<svg version="1.0" xmlns="http://www.w3.org/2000/svg"
 width="512.000000pt" height="512.000000pt" viewBox="0 0 512.000000 512.000000"
 preserveAspectRatio="xMidYMid meet">

<g transform="translate(0.000000,512.000000) scale(0.100000,-0.100000)"
fill="rgb(108, 0, 108)" stroke="none">
<path d="M2390 5114 c-357 -27 -712 -128 -1020 -291 -611 -322 -1074 -888
-1265 -1544 -71 -244 -99 -448 -99 -719 0 -271 28 -475 99 -719 198 -682 689
-1263 1330 -1576 83 -40 188 -87 235 -104 517 -186 1056 -208 1575 -65 698
193 1290 685 1610 1339 112 228 184 450 224 685 111 650 -28 1311 -387 1850
-415 623 -1047 1019 -1792 1125 -107 15 -410 26 -510 19z m248 -959 c49 -21
81 -52 103 -100 34 -74 17 -163 -45 -229 -23 -25 -26 -37 -26 -97 0 -38 2 -69
4 -69 2 0 211 -43 464 -95 345 -71 471 -93 504 -89 34 4 53 0 88 -18 25 -14
106 -37 184 -53 161 -34 190 -50 190 -109 0 -24 -7 -44 -22 -59 -21 -20 -33
-22 -168 -25 -144 -3 -145 -4 -138 -25 4 -12 101 -278 216 -592 205 -557 209
-571 203 -627 -12 -113 -67 -226 -134 -275 -74 -56 -110 -66 -266 -75 -82 -5
-207 -7 -277 -5 -109 5 -135 9 -186 32 -114 51 -189 158 -212 300 l-12 70 211
575 c116 316 216 585 221 598 l10 22 -440 0 -440 0 0 -830 0 -830 100 0 c118
0 154 -14 176 -65 8 -19 14 -56 14 -83 l0 -49 181 -6 c148 -5 186 -9 211 -24
41 -24 66 -75 74 -151 l7 -62 -872 0 -871 0 0 38 c0 57 26 135 54 161 30 28
116 40 299 40 l117 1 0 50 c0 28 6 66 14 85 22 51 58 65 176 65 l100 0 0 830
0 830 -440 0 -439 0 30 -82 c426 -1154 416 -1120 385 -1235 -33 -124 -108
-214 -214 -253 -52 -20 -78 -22 -312 -23 -244 -2 -257 -1 -311 21 -108 43
-181 131 -214 257 -8 33 -15 77 -15 98 0 31 233 687 427 1205 4 9 -25 12 -125
12 -72 0 -142 4 -156 10 -36 13 -61 67 -47 102 16 41 45 54 189 83 80 16 153
37 180 52 38 20 56 23 92 19 35 -5 153 16 505 89 252 52 460 95 462 95 2 0 3
31 3 68 0 64 -2 71 -34 107 -64 72 -72 173 -19 249 52 76 156 106 241 71z"/>
<path d="M1251 2603 c-113 -307 -206 -564 -209 -571 -4 -10 75 -12 417 -10
231 2 421 6 421 9 0 6 -335 922 -397 1087 -9 23 -19 42 -22 42 -4 0 -98 -251
-210 -557z"/>
<path d="M3641 3138 c-146 -393 -402 -1101 -399 -1104 7 -7 838 -9 836 -2
-207 571 -415 1128 -421 1128 -4 0 -11 -10 -16 -22z"/>
</g>
</svg>
